<mxfile host="65bd71144e">
    <diagram id="Gp4b1td-Q_GJ732V_lQb" name="Page-1">
        <mxGraphModel dx="1314" dy="593" grid="1" gridSize="10" guides="1" tooltips="1" connect="1" arrows="1" fold="1" page="1" pageScale="1" pageWidth="850" pageHeight="1100" math="0" shadow="0">
            <root>
                <mxCell id="0"/>
                <mxCell id="1" parent="0"/>
                <mxCell id="7" value="" style="group" parent="1" vertex="1" connectable="0">
                    <mxGeometry x="90" y="220" width="220" height="135" as="geometry"/>
                </mxCell>
                <mxCell id="6" value="AHB Slave" style="rounded=0;whiteSpace=wrap;html=1;verticalAlign=top;" parent="7" vertex="1">
                    <mxGeometry y="40" width="220" height="95" as="geometry"/>
                </mxCell>
                <mxCell id="3" value="ahbsi" style="rounded=0;whiteSpace=wrap;html=1;" parent="7" vertex="1">
                    <mxGeometry y="90" width="80" height="30" as="geometry"/>
                </mxCell>
                <mxCell id="4" value="ahbso" style="rounded=0;whiteSpace=wrap;html=1;" parent="7" vertex="1">
                    <mxGeometry x="140" y="90" width="80" height="30" as="geometry"/>
                </mxCell>
                <mxCell id="5" value="ahbrom128" style="text;html=1;strokeColor=none;fillColor=none;align=center;verticalAlign=middle;whiteSpace=wrap;rounded=0;" parent="7" vertex="1">
                    <mxGeometry x="70" y="10" width="60" height="30" as="geometry"/>
                </mxCell>
                <mxCell id="8" value="" style="rounded=0;whiteSpace=wrap;html=1;" parent="1" vertex="1">
                    <mxGeometry x="560" y="240" width="260" height="290" as="geometry"/>
                </mxCell>
                <mxCell id="9" value="noelvsys" style="text;html=1;strokeColor=none;fillColor=none;align=center;verticalAlign=middle;whiteSpace=wrap;rounded=0;" parent="1" vertex="1">
                    <mxGeometry x="590" y="200" width="60" height="30" as="geometry"/>
                </mxCell>
                <mxCell id="11" value="ahbso[1]" style="rounded=0;whiteSpace=wrap;html=1;" parent="1" vertex="1">
                    <mxGeometry x="560" y="310" width="80" height="30" as="geometry"/>
                </mxCell>
                <mxCell id="12" value="" style="endArrow=none;html=1;exitX=1;exitY=0.5;exitDx=0;exitDy=0;entryX=0;entryY=0.5;entryDx=0;entryDy=0;" parent="1" source="4" target="11" edge="1">
                    <mxGeometry width="50" height="50" relative="1" as="geometry">
                        <mxPoint x="400" y="340" as="sourcePoint"/>
                        <mxPoint x="450" y="290" as="targetPoint"/>
                    </mxGeometry>
                </mxCell>
                <mxCell id="14" value="ahbso[2]" style="rounded=0;whiteSpace=wrap;html=1;" parent="1" vertex="1">
                    <mxGeometry x="560" y="370" width="80" height="30" as="geometry"/>
                </mxCell>
                <mxCell id="15" value="ahbso[0]" style="rounded=0;whiteSpace=wrap;html=1;" parent="1" vertex="1">
                    <mxGeometry x="560" y="260" width="80" height="30" as="geometry"/>
                </mxCell>
                <mxCell id="16" value="" style="group" parent="1" vertex="1" connectable="0">
                    <mxGeometry x="80" y="60" width="220" height="135" as="geometry"/>
                </mxCell>
                <mxCell id="17" value="AHB 2AXI3B" style="rounded=0;whiteSpace=wrap;html=1;verticalAlign=top;" parent="16" vertex="1">
                    <mxGeometry y="40" width="220" height="95" as="geometry"/>
                </mxCell>
                <mxCell id="18" value="ahbsi" style="rounded=0;whiteSpace=wrap;html=1;" parent="16" vertex="1">
                    <mxGeometry y="90" width="80" height="30" as="geometry"/>
                </mxCell>
                <mxCell id="19" value="ahbso" style="rounded=0;whiteSpace=wrap;html=1;" parent="16" vertex="1">
                    <mxGeometry x="140" y="90" width="80" height="30" as="geometry"/>
                </mxCell>
                <mxCell id="21" value="" style="endArrow=none;html=1;exitX=1;exitY=0.5;exitDx=0;exitDy=0;entryX=0;entryY=0.5;entryDx=0;entryDy=0;edgeStyle=orthogonalEdgeStyle;" parent="1" source="19" target="15" edge="1">
                    <mxGeometry width="50" height="50" relative="1" as="geometry">
                        <mxPoint x="320" y="335" as="sourcePoint"/>
                        <mxPoint x="570" y="335" as="targetPoint"/>
                    </mxGeometry>
                </mxCell>
                <mxCell id="22" value="ahbsi" style="rounded=0;whiteSpace=wrap;html=1;" parent="1" vertex="1">
                    <mxGeometry x="740" y="320" width="80" height="30" as="geometry"/>
                </mxCell>
                <mxCell id="23" value="" style="endArrow=none;html=1;exitX=0;exitY=0.5;exitDx=0;exitDy=0;entryX=1;entryY=0.5;entryDx=0;entryDy=0;edgeStyle=orthogonalEdgeStyle;" parent="1" source="3" target="22" edge="1">
                    <mxGeometry width="50" height="50" relative="1" as="geometry">
                        <mxPoint x="320" y="335" as="sourcePoint"/>
                        <mxPoint x="570" y="335" as="targetPoint"/>
                        <Array as="points">
                            <mxPoint x="20" y="325"/>
                            <mxPoint x="20" y="650"/>
                            <mxPoint x="880" y="650"/>
                            <mxPoint x="880" y="335"/>
                        </Array>
                    </mxGeometry>
                </mxCell>
                <mxCell id="24" value="" style="endArrow=none;html=1;exitX=0;exitY=0.5;exitDx=0;exitDy=0;edgeStyle=orthogonalEdgeStyle;entryX=0;entryY=0.5;entryDx=0;entryDy=0;" parent="1" source="3" target="18" edge="1">
                    <mxGeometry width="50" height="50" relative="1" as="geometry">
                        <mxPoint x="100" y="335" as="sourcePoint"/>
                        <mxPoint x="370" y="270" as="targetPoint"/>
                        <Array as="points">
                            <mxPoint x="20" y="325"/>
                            <mxPoint x="20" y="165"/>
                        </Array>
                    </mxGeometry>
                </mxCell>
                <mxCell id="25" value="" style="group" parent="1" vertex="1" connectable="0">
                    <mxGeometry x="60" y="483" width="220" height="135" as="geometry"/>
                </mxCell>
                <mxCell id="26" value="AHB&amp;nbsp; Master" style="rounded=0;whiteSpace=wrap;html=1;verticalAlign=top;" parent="25" vertex="1">
                    <mxGeometry y="40" width="220" height="95" as="geometry"/>
                </mxCell>
                <mxCell id="27" value="ahbsi" style="rounded=0;whiteSpace=wrap;html=1;" parent="25" vertex="1">
                    <mxGeometry y="90" width="80" height="30" as="geometry"/>
                </mxCell>
                <mxCell id="28" value="ahbmo" style="rounded=0;whiteSpace=wrap;html=1;" parent="25" vertex="1">
                    <mxGeometry x="140" y="90" width="80" height="30" as="geometry"/>
                </mxCell>
                <mxCell id="29" value="eth0" style="text;html=1;strokeColor=none;fillColor=none;align=center;verticalAlign=middle;whiteSpace=wrap;rounded=0;" parent="25" vertex="1">
                    <mxGeometry x="70" y="10" width="60" height="30" as="geometry"/>
                </mxCell>
                <mxCell id="30" value="ahbmo[1]" style="rounded=0;whiteSpace=wrap;html=1;" parent="1" vertex="1">
                    <mxGeometry x="560" y="420" width="80" height="30" as="geometry"/>
                </mxCell>
                <mxCell id="31" value="" style="endArrow=none;html=1;exitX=1;exitY=0.5;exitDx=0;exitDy=0;entryX=0;entryY=0.5;entryDx=0;entryDy=0;" parent="1" source="28" target="30" edge="1">
                    <mxGeometry width="50" height="50" relative="1" as="geometry">
                        <mxPoint x="400" y="530" as="sourcePoint"/>
                        <mxPoint x="450" y="480" as="targetPoint"/>
                    </mxGeometry>
                </mxCell>
                <mxCell id="32" value="mem_aximo" style="rounded=0;whiteSpace=wrap;html=1;" vertex="1" parent="1">
                    <mxGeometry x="740" y="270" width="80" height="30" as="geometry"/>
                </mxCell>
                <mxCell id="33" value="" style="group" vertex="1" connectable="0" parent="1">
                    <mxGeometry x="1030" y="170" width="220" height="135" as="geometry"/>
                </mxCell>
                <mxCell id="34" value="AXI_MIG4_7" style="rounded=0;whiteSpace=wrap;html=1;verticalAlign=top;" vertex="1" parent="33">
                    <mxGeometry y="40" width="220" height="95" as="geometry"/>
                </mxCell>
                <mxCell id="35" value="aximo" style="rounded=0;whiteSpace=wrap;html=1;" vertex="1" parent="33">
                    <mxGeometry y="90" width="80" height="30" as="geometry"/>
                </mxCell>
                <mxCell id="36" value="DDR4" style="rounded=0;whiteSpace=wrap;html=1;" vertex="1" parent="33">
                    <mxGeometry x="140" y="90" width="80" height="30" as="geometry"/>
                </mxCell>
                <mxCell id="37" value="mig_gen.ddr4c" style="text;html=1;strokeColor=none;fillColor=none;align=center;verticalAlign=middle;whiteSpace=wrap;rounded=0;" vertex="1" parent="33">
                    <mxGeometry x="70" y="10" width="60" height="30" as="geometry"/>
                </mxCell>
                <mxCell id="38" value="" style="endArrow=none;html=1;entryX=0;entryY=0.5;entryDx=0;entryDy=0;exitX=1;exitY=0.5;exitDx=0;exitDy=0;" edge="1" parent="1" source="32" target="35">
                    <mxGeometry width="50" height="50" relative="1" as="geometry">
                        <mxPoint x="640" y="330" as="sourcePoint"/>
                        <mxPoint x="690" y="280" as="targetPoint"/>
                    </mxGeometry>
                </mxCell>
            </root>
        </mxGraphModel>
    </diagram>
</mxfile>